<svg xmlns="http://www.w3.org/2000/svg" viewBox="0 0 393.28 427.43"><defs><style>.cls-1{fill:#595a5a;}.cls-2{fill:#639b64;}</style></defs><title>ineedpowerlogo-svg</title><g id="Battery"><g id="INeedPower"><path class="cls-1" d="M105,507.7a3.5,3.5,0,0,1-3.46-3.45V469.3a3.44,3.44,0,0,1,5.89-2.44,3.3,3.3,0,0,1,1,2.44v34.95a3.3,3.3,0,0,1-1,2.43A3.25,3.25,0,0,1,105,507.7Z" transform="translate(-101.49 -80.28)"/><path class="cls-1" d="M145.58,506.39h0v0l-21.06-27.1v25a3.46,3.46,0,0,1-6.91,0v-35.1a3.44,3.44,0,0,1,2.34-3.25,3.18,3.18,0,0,1,2.11-.06,3.33,3.33,0,0,1,1.73,1.2l21.06,27.13v-25a3.27,3.27,0,0,1,1-2.43,3.32,3.32,0,0,1,2.46-1,3.23,3.23,0,0,1,2.43,1,3.26,3.26,0,0,1,1,2.43v35.16a.86.86,0,0,1,0,.17v.15a.67.67,0,0,1,0,.17.42.42,0,0,1,0,.18l0,.15a.44.44,0,0,1-.06.17.53.53,0,0,1-.06.15.63.63,0,0,1-.06.17l-.06.15-.08.15-.09.17-.09.09-.12.18-.08.11-.12.12q-.09.12-.12.12s0,.06-.12.12a.6.6,0,0,1-.14.11q.09-.06,0,0l0,0a3,3,0,0,1-.44.29h0a4.84,4.84,0,0,1-.47.21l-.06,0a2,2,0,0,1-.49.12l-.09,0-.5,0-.38,0h-.06l-.29-.06s0,0-.12,0l-.23-.06-.12-.06a.67.67,0,0,1-.24-.09.15.15,0,0,1-.11-.06l-.21-.08-.12-.09-.2-.15-.12-.09a1.94,1.94,0,0,1-.26-.23l0,0v0l-.12-.12Z" transform="translate(-101.49 -80.28)"/><path class="cls-1" d="M188.24,500.76a3.23,3.23,0,0,1,2.43,1,3.32,3.32,0,0,1,1,2.46,3.5,3.5,0,0,1-3.46,3.45H167a3.5,3.5,0,0,1-3.46-3.45V469.12a3.52,3.52,0,0,1,3.46-3.49h0l21.18.06a3.32,3.32,0,0,1,2.46,1,3.37,3.37,0,0,1,1,2.46,3.23,3.23,0,0,1-1,2.43,3.26,3.26,0,0,1-2.43,1h0l-17.69-.06v10.63h12.77a3.46,3.46,0,0,1,2.46,5.92,3.41,3.41,0,0,1-2.46,1H170.52v10.63Z" transform="translate(-101.49 -80.28)"/><path class="cls-1" d="M225.48,500.76a3.26,3.26,0,0,1,2.43,1,3.35,3.35,0,0,1,1,2.46,3.48,3.48,0,0,1-3.45,3.45H204.27a3.48,3.48,0,0,1-3.46-3.45V469.12a3.5,3.5,0,0,1,3.46-3.49h0l21.18.06a3.36,3.36,0,0,1,2.46,1,3.4,3.4,0,0,1,1,2.46,3.25,3.25,0,0,1-1,2.43,3.3,3.3,0,0,1-2.43,1h0l-17.7-.06v10.63h12.78a3.41,3.41,0,0,1,2.46,1,3.48,3.48,0,0,1,0,4.92,3.45,3.45,0,0,1-2.46,1H207.75v10.63Z" transform="translate(-101.49 -80.28)"/><path class="cls-1" d="M241.47,507.7a3.43,3.43,0,0,1-3.45-3.45V469.18a3.35,3.35,0,0,1,1-2.46,3.31,3.31,0,0,1,2.43-1h8.88a20.94,20.94,0,0,1,0,41.87l-8.82.11Zm3.49-7,5.36-.09a14,14,0,0,0,0-28H245Z" transform="translate(-101.49 -80.28)"/><path class="cls-1" d="M295.14,465.6a13.09,13.09,0,0,1,9.29,3.61,11.67,11.67,0,0,1,.15,17.22,13.13,13.13,0,0,1-9,3.73h-.11l-.36,0-.17,0h-8.59v14.09a3.43,3.43,0,0,1-3.45,3.45,3.5,3.5,0,0,1-3.46-3.45V469.06a3.23,3.23,0,0,1,1-2.43,3.26,3.26,0,0,1,2.43-1Zm.21,17.64a6.42,6.42,0,0,0,4.25-1.61,4.85,4.85,0,0,0-.06-7.53,6.49,6.49,0,0,0-4.4-1.58h-8.76v10.72Z" transform="translate(-101.49 -80.28)"/><path class="cls-1" d="M335.9,507.7a21,21,0,1,1,14.88-6.18A20.22,20.22,0,0,1,335.9,507.7Zm0-35.15a14.1,14.1,0,1,0,10,4.13A13.58,13.58,0,0,0,335.9,472.55Z" transform="translate(-101.49 -80.28)"/><path class="cls-1" d="M418.37,465.9a3.4,3.4,0,0,1,2,1.78,3.37,3.37,0,0,1,.15,2.64l-12.34,35.07v0a2.46,2.46,0,0,1-.17.44s-.06.07-.06.09-.17.26-.26.38q0-.09-.06.09l-.27.29-.06.06-.35.29-.09.06a2.43,2.43,0,0,1-.35.2c-.06,0-.07,0-.06,0l-.38.15q-.11.06,0,0a1.93,1.93,0,0,1-.41.09l-.14,0a3.75,3.75,0,0,1-.56.05,3.87,3.87,0,0,1-.56-.05l-.14,0a1.41,1.41,0,0,1-.38-.09l-.06,0a2.17,2.17,0,0,1-.35-.15l-.09,0a2.43,2.43,0,0,1-.35-.2,0,0,0,0,0,0,0l0,0a3.85,3.85,0,0,1-.35-.29s0,0-.09-.06a1.92,1.92,0,0,1-.26-.32l-.06-.06-.24-.38a.35.35,0,0,0-.06-.09l-.2-.44v0l-9.05-25.78-9.06,25.78v0a4.09,4.09,0,0,1-.2.44.35.35,0,0,1-.06.09l-.23.38c0-.06,0,0-.06.09l-.3.29-.05.06a4.1,4.1,0,0,1-.36.29s0,0-.08.06a3.24,3.24,0,0,1-.36.2c-.05,0-.07,0-.05,0l-.36.15c-.09,0-.11.05-.05,0a2.26,2.26,0,0,1-.41.09q-.21.06-.15,0a3.17,3.17,0,0,1-.53.05,3.21,3.21,0,0,1-.55-.05s0,0-.15,0a2.09,2.09,0,0,1-.41-.09q.09,0,0,0l-.38-.15s0,0-.06,0a3.12,3.12,0,0,1-.35-.2l-.06,0a0,0,0,0,0,0,0l-.35-.29-.06-.06c-.1-.1-.2-.21-.29-.32l0-.06a3.28,3.28,0,0,1-.27-.38.36.36,0,0,0-.05-.09,2.56,2.56,0,0,1-.18-.44l0,0-12.3-35.07a3.32,3.32,0,0,1,.14-2.64,3.42,3.42,0,0,1,2-1.78,3.34,3.34,0,0,1,2.63.14,3.52,3.52,0,0,1,1.79,2l9,25.78L389.33,468v0a.93.93,0,0,0,.06-.18c.06-.12.08-.16.06-.15s.05,0,.09-.11a3.07,3.07,0,0,1,.59-.82,3.53,3.53,0,0,1,.87-.65q.12-.06.09-.06l.15-.05.17-.06s0,0,0,0,0,0,.12,0l.18-.06.17,0,.15,0,.2,0h.47l.21,0h.14l.21,0,.12,0,.23.06a0,0,0,0,0,0,0h.06v0h0l.17.08.15,0,.12.09a3.37,3.37,0,0,1,.85.62,3.22,3.22,0,0,1,.58.79l.06.14.06.12.09.21v0l9.05,25.78L413.94,468a3.44,3.44,0,0,1,1.76-2l1.29-.61Z" transform="translate(-101.49 -80.28)"/><path class="cls-1" d="M453.64,500.76a3.23,3.23,0,0,1,2.43,1,3.32,3.32,0,0,1,1,2.46,3.5,3.5,0,0,1-3.46,3.45H432.43a3.25,3.25,0,0,1-2.43-1,3.3,3.3,0,0,1-1-2.43V469.12a3.3,3.3,0,0,1,1-2.46,3.26,3.26,0,0,1,2.43-1h0l21.18.06a3.32,3.32,0,0,1,2.46,1,3.37,3.37,0,0,1,1,2.46,3.23,3.23,0,0,1-1,2.43,3.26,3.26,0,0,1-2.43,1h0l-17.69-.06v10.63h12.77a3.46,3.46,0,0,1,2.46,5.92,3.41,3.41,0,0,1-2.46,1H435.92v10.63Z" transform="translate(-101.49 -80.28)"/><path class="cls-1" d="M494.77,477.85a11.23,11.23,0,0,1-2.4,7,12.57,12.57,0,0,1-6.09,4.43l6.65,13.47a3.51,3.51,0,0,1-1.58,4.6,3.43,3.43,0,0,1-1.53.35,3.17,3.17,0,0,1-3.07-1.93L479,490H473v14a3.33,3.33,0,0,1-1,2.43,3.27,3.27,0,0,1-2.43,1,3.41,3.41,0,0,1-3.43-3.43V469.09a3.27,3.27,0,0,1,1-2.43,3.33,3.33,0,0,1,2.43-1h12.13a13,13,0,0,1,9.23,3.58A11.39,11.39,0,0,1,494.77,477.85Zm-12.83,5.3a6.59,6.59,0,0,0,4.22-1.61,4.82,4.82,0,0,0-.09-7.47,6.5,6.5,0,0,0-4.36-1.55H473v10.63Z" transform="translate(-101.49 -80.28)"/></g><path id="Frame" class="cls-1" d="M382.45,105.5h-47V95.71A15.43,15.43,0,0,0,320,80.28H276.26a15.43,15.43,0,0,0-15.43,15.43v9.79h-47A25.9,25.9,0,0,0,188,131.36V400.44a25.9,25.9,0,0,0,25.87,25.86H382.45a25.89,25.89,0,0,0,25.86-25.86V131.36A25.89,25.89,0,0,0,382.45,105.5Zm-3.14,291.8H217V134.5H379.31Z" transform="translate(-101.49 -80.28)"/></g><g id="bottom"><path class="cls-2" d="M293.7,279.21h-23l4.51-9.17h-31a13.66,13.66,0,0,0-13.66,13.65v26.23a13.66,13.66,0,0,0,13.66,13.66H352.07a13.65,13.65,0,0,0,13.65-13.66V283.69A13.65,13.65,0,0,0,352.07,270H317L293.7,317.31Z" transform="translate(-101.49 -80.28)"/></g><g id="bottom_middle" data-name="bottom middle"><rect class="cls-2" x="129.05" y="251.59" width="135.18" height="53.54" rx="13.65" ry="13.65"/></g><g id="top_middle" data-name="top middle"><path class="cls-2" d="M352.07,208.22H244.2a13.66,13.66,0,0,0-13.66,13.65V248.1a13.67,13.67,0,0,0,13.66,13.66h35.11l23.25-47.28v38.1h23L321,261.76h31a13.66,13.66,0,0,0,13.65-13.66V221.87A13.65,13.65,0,0,0,352.07,208.22Z" transform="translate(-101.49 -80.28)"/></g><g id="top"><rect class="cls-2" x="129.05" y="66.11" width="135.18" height="53.54" rx="13.65" ry="13.65"/></g></svg>