<svg xmlns="http://www.w3.org/2000/svg" xmlns:xlink="http://www.w3.org/1999/xlink" viewBox="11554 -7 1280 800"><defs><style>.a{clip-path:url(#j);}.b{fill:url(#a);}.c{fill:url(#b);}.d{fill:url(#c);}.e{fill:url(#f);}.f{fill:#fff;}.g{filter:url(#g);}.h{filter:url(#d);}</style><linearGradient id="a" x1="0.5" x2="0.5" y2="1" gradientUnits="objectBoundingBox"><stop offset="0" stop-color="#07ccff"/><stop offset="1" stop-color="#09133b"/></linearGradient><linearGradient id="b" x1="0.5" x2="0.756" y2="0.767" gradientUnits="objectBoundingBox"><stop offset="0" stop-color="#07eeff"/><stop offset="1" stop-color="#1534af"/></linearGradient><linearGradient id="c" x1="0.5" x2="0.756" y2="0.767" gradientUnits="objectBoundingBox"><stop offset="0" stop-color="#65f4ff"/><stop offset="1" stop-color="#1b40d5"/></linearGradient><filter id="d" x="12203.87" y="-7" width="657.735" height="710.933" filterUnits="userSpaceOnUse"><feOffset dx="-10" dy="10" input="SourceAlpha"/><feGaussianBlur stdDeviation="3" result="e"/><feFlood flood-opacity="0.161"/><feComposite operator="in" in2="e"/><feComposite in="SourceGraphic"/></filter><linearGradient id="f" x1="0.5" x2="0.756" y2="0.767" gradientUnits="objectBoundingBox"><stop offset="0" stop-color="#97f8ff"/><stop offset="1" stop-color="#4e71ff"/></linearGradient><filter id="g" x="12378.046" y="-7" width="483.56" height="581.478" filterUnits="userSpaceOnUse"><feOffset dx="-10" dy="10" input="SourceAlpha"/><feGaussianBlur stdDeviation="3" result="h"/><feFlood flood-opacity="0.161"/><feComposite operator="in" in2="h"/><feComposite in="SourceGraphic"/></filter><clipPath id="j"><rect x="11554" y="-7" width="1280" height="800"/></clipPath></defs><g id="i" class="a"><rect class="f" x="11554" y="-7" width="1280" height="800"/><path class="b" d="M5477.1,182s-207.127,295.8,0,434.674,91.795,115.332,221.25,256.555,414.254-54.135,461.329,122.393,0-813.623,0-813.623Z" transform="translate(6681 -189)"/><path class="c" d="M5477.1,182s-207.127,295.8,0,434.674,91.795,115.332,221.25,256.555,414.254-54.135,461.329,122.393,0-813.623,0-813.623Z" transform="translate(6681 -189)"/><g class="h" transform="matrix(1, 0, 0, 1, 0, 0)"><path class="d" d="M5458.958,182s-166.3,245.209,0,360.326,73.7,95.605,177.636,212.673,332.6-44.876,370.391,101.459,0-674.457,0-674.457Z" transform="translate(6837.82 -189)"/></g><g class="g" transform="matrix(1, 0, 0, 1, 0, 0)"><path class="e" d="M5438.8,182s-120.95,199.333,0,292.912,53.6,77.718,129.2,172.884,241.9-36.48,269.39,82.477,0-548.272,0-548.272Z" transform="translate(7012 -189)"/></g></g></svg>